<?xml version="1.0" encoding="UTF-8" standalone="no"?>
<svg
   xmlns:dc="http://purl.org/dc/elements/1.1/"
   xmlns:cc="http://creativecommons.org/ns#"
   xmlns:rdf="http://www.w3.org/1999/02/22-rdf-syntax-ns#"
   xmlns:svg="http://www.w3.org/2000/svg"
   xmlns="http://www.w3.org/2000/svg"
   xmlns:sodipodi="http://sodipodi.sourceforge.net/DTD/sodipodi-0.dtd"
   xmlns:inkscape="http://www.inkscape.org/namespaces/inkscape"
   width="32"
   height="32"
   viewBox="0 0 32 31.999999"
   version="1.2"
   id="svg8"
   sodipodi:docname="app.svg"
   inkscape:version="0.92.4 (5da689c313, 2019-01-14)"
   inkscape:export-filename="/tmp/tbicon/app_16.png"
   inkscape:export-xdpi="48"
   inkscape:export-ydpi="48">
  <metadata
     id="metadata14">
    <rdf:RDF>
      <cc:Work
         rdf:about="">
        <dc:format>image/svg+xml</dc:format>
        <dc:type
           rdf:resource="http://purl.org/dc/dcmitype/StillImage" />
        <dc:title></dc:title>
      </cc:Work>
    </rdf:RDF>
  </metadata>
  <defs
     id="defs12" />
  <sodipodi:namedview
     pagecolor="#ffffff"
     bordercolor="#666666"
     borderopacity="1"
     objecttolerance="10"
     gridtolerance="10"
     guidetolerance="10"
     inkscape:pageopacity="0"
     inkscape:pageshadow="2"
     inkscape:window-width="1920"
     inkscape:window-height="1054"
     id="namedview10"
     showgrid="false"
     fit-margin-top="0"
     fit-margin-left="0"
     fit-margin-right="0"
     fit-margin-bottom="0"
     inkscape:zoom="16"
     inkscape:cx="18.939123"
     inkscape:cy="7.3697358"
     inkscape:window-x="1920"
     inkscape:window-y="458"
     inkscape:window-maximized="0"
     inkscape:current-layer="svg8" />
  <path
     d="m 16.000336,4.659 c 0.913242,0 0.995584,0.2312863 1.513664,0.943607 l 9.624,18.030076 C 28.757705,26.081115 27.766157,27.341 25.767646,27.341 H 6.2331003 C 4.2345899,27.341 3.4464197,26.391783 4.863,23.632683 L 14.487,5.602607 C 14.940685,4.9653854 15.087092,4.659 16.000336,4.659 m 0,-4.659 C 13.890597,0 11.959925,1.3539938 10.695058,3.7161642 L 1.0710009,21.749901 C -0.20851675,24.145006 -0.34851487,26.699296 0.68844797,28.757733 1.7254107,30.816169 3.7472442,32 6.2330247,32 H 25.767646 c 2.485781,0 4.509241,-1.181999 5.544577,-3.240437 1.035335,-2.058436 0.896964,-4.612728 -0.382554,-7.007832 L 21.305612,3.7216533 C 20.040746,1.3539938 18.110074,0 16.000336,0 Z"
     id="path2"
     inkscape:connector-curvature="0"
     style="fill:#595959;fill-opacity:1;stroke-width:0.99999988"
     sodipodi:nodetypes="cccsscccsccssssccs" />
  <ellipse
     cx="16.085138"
     cy="22.828918"
     id="circle4"
     style="stroke-width:0.99999994;fill:#595959;fill-opacity:1"
     rx="2.1274669"
     ry="2.3844807" />
  <path
     d="m 18.539907,11.823621 c 0,-1.522399 -1.0981,-2.7513235 -2.454769,-2.7513235 -1.356669,0 -2.454769,1.2289245 -2.454769,2.7513235 0,0.365009 0.0671,0.71351 0.181652,1.03083 0.906629,2.523881 2.273117,6.306035 2.273117,6.306035 l 2.276389,-6.306035 c 0.111283,-0.31732 0.17838,-0.665821 0.17838,-1.03083 z"
     id="path6"
     inkscape:connector-curvature="0"
     style="stroke-width:0.99999994;fill:#595959;fill-opacity:1" />
</svg>
